<svg xmlns="http://www.w3.org/2000/svg" viewBox="0 0 825 200">
    <path d="M-1,200-1,0H826.11L825,200Zm801.39-75.8c0-13.67-11.25-21.45-23.26-23.26-17-3-29.65-1-29.73-6.46a5.29,5.29,0,0,1,5.17-5.17h15.51a13.25,13.25,0,0,1,9.9,4.84l1.15,1.41a3,3,0,0,0,3.06.87l14.45-5a2.48,2.48,0,0,0,1.53-3.26s.11.19-.38-.88a32.56,32.56,0,0,0-29.71-18.68H752.57c-14.44,0-24.84,12.43-24.84,26.85,0,13.83,10.24,20.44,22.26,22.26,18.71,3.1,29.64,1,29.72,6.46a5.1,5.1,0,0,1-5.17,5.17H759a13.24,13.24,0,0,1-10.15-5.17c-.62-.81-.23-.32-.23-.32a3.23,3.23,0,0,0-3.7-1.45l-14.48,4.83a2.45,2.45,0,0,0-1.53,3.23s-.17-.34.28.66A32.56,32.56,0,0,0,759,150.05h15.51A25.66,25.66,0,0,0,800.39,124.2ZM721.56,69.63H706a2.58,2.58,0,0,0-2.58,2.58v1.94A29,29,0,0,0,688,69.63c-21,0-37.48,16.42-37.48,36.18v7.76A37.33,37.33,0,0,0,688,151.05a34.44,34.44,0,0,0,15.5-3.88c-1.81,7.39-8.47,12.92-15.5,12.92a17.62,17.62,0,0,1-13.31-5.94c-.85-1-1.53-1.67-1.53-1.67a2.66,2.66,0,0,0-3-.54l-13.42,7a2.56,2.56,0,0,0-1.1,3.48s-.07,0,.58,1A37.2,37.2,0,0,0,688,180.77a36.33,36.33,0,0,0,36.18-36.19V72.21A2.57,2.57,0,0,0,721.56,69.63Zm-18.1,43.94c0,9.46-7.32,16.8-15.5,16.8a16.56,16.56,0,0,1-16.8-16.8v-6.46A16.56,16.56,0,0,1,688,90.31c8.18,0,15.5,7.34,15.5,16.8ZM465.57,151.05a2.58,2.58,0,0,0,2.57-2.58V133a2.58,2.58,0,0,0-2.58-2.58h-9.05c-3.48,0-6.46-1.29-6.46-5.17V91.59a1.29,1.29,0,0,1,1.3-1.28h14.2a2.59,2.59,0,0,0,2.59-2.58V72.21a2.59,2.59,0,0,0-2.59-2.58h-14.2a1.29,1.29,0,0,1-1.3-1.3V42.49a2.58,2.58,0,0,0-2.58-2.58H433.24a2.59,2.59,0,0,0-2.58,2.59V58a12.92,12.92,0,0,1-12.93,12.93h-3.88a2.58,2.58,0,0,0-2.57,2.58V87.73a2.59,2.59,0,0,0,2.59,2.58h14.2a1.29,1.29,0,0,1,1.3,1.28V125.2a24.66,24.66,0,0,0,24.56,25.85Zm-367-2.59a2.59,2.59,0,0,0,2.58,2.59h15.52a2.59,2.59,0,0,0,2.58-2.58v-1.95a29.06,29.06,0,0,0,15.51,4.53c21,0,37.47-16.42,37.47-36.19v-7.75a37.32,37.32,0,0,0-37.47-37.48,34.35,34.35,0,0,0-15.51,3.88v-31a2.58,2.58,0,0,0-2.58-2.58H101.12a2.58,2.58,0,0,0-2.58,2.58Zm20.68-34.89v-6.46c0-9.46,7.32-16.8,15.51-16.8a16.57,16.57,0,0,1,16.8,16.8v6.46a16.57,16.57,0,0,1-16.8,16.8C126.54,130.37,119.22,123,119.22,113.57Zm257,34.89v-106a2.58,2.58,0,0,0-2.58-2.58H358.12a2.58,2.58,0,0,0-2.58,2.58v31A34.35,34.35,0,0,0,340,69.63a37.32,37.32,0,0,0-37.47,37.48v7.75c0,19.77,16.47,36.19,37.47,36.19a29.06,29.06,0,0,0,15.51-4.53v1.95a2.59,2.59,0,0,0,2.58,2.58h15.52A2.59,2.59,0,0,0,376.22,148.46Zm-20.68-34.89c0,9.46-7.32,16.8-15.51,16.8a16.56,16.56,0,0,1-16.8-16.8v-6.46A16.56,16.56,0,0,1,340,90.31c8.19,0,15.51,7.34,15.51,16.8Zm-59.15,37.48a2.58,2.58,0,0,0,2.58-2.59v-106a2.58,2.58,0,0,0-2.58-2.58H280.87a2.58,2.58,0,0,0-2.58,2.58v106a2.59,2.59,0,0,0,2.58,2.59Zm-25.26,0a2.59,2.59,0,0,0,2.58-2.6V72.22a2.59,2.59,0,0,0-2.58-2.59H255.61A2.58,2.58,0,0,0,253,72.22v76.23a2.6,2.6,0,0,0,2.58,2.6Zm295.94,0a2.59,2.59,0,0,0,2.58-2.6V72.22a2.59,2.59,0,0,0-2.58-2.59H551.55A2.58,2.58,0,0,0,549,72.22v76.23a2.6,2.6,0,0,0,2.58,2.6Zm-295.94-85a2.59,2.59,0,0,0,2.58-2.58v-21a2.58,2.58,0,0,0-2.58-2.57H255.61A2.58,2.58,0,0,0,253,42.48v21a2.59,2.59,0,0,0,2.58,2.58Zm295.94,0a2.59,2.59,0,0,0,2.58-2.58v-21a2.58,2.58,0,0,0-2.58-2.57H551.55A2.58,2.58,0,0,0,549,42.48v21a2.59,2.59,0,0,0,2.58,2.58Zm-321.2,85a2.59,2.59,0,0,0,2.58-2.6V72.22a2.59,2.59,0,0,0-2.58-2.59H230.35a2.58,2.58,0,0,0-2.58,2.58v41.36c0,9.69-6.46,16.8-16.15,16.8s-16.16-7.11-16.16-16.8V72.21a2.58,2.58,0,0,0-2.57-2.58H177.36a2.57,2.57,0,0,0-2.57,2.58v41.36c0,21,15.82,37.48,36.83,37.48a31.17,31.17,0,0,0,16.15-4.53v1.95a2.59,2.59,0,0,0,2.58,2.58ZM474.3,39.91a2.57,2.57,0,0,0-2.57,2.58v106a2.58,2.58,0,0,0,2.57,2.59h15.53a2.58,2.58,0,0,0,2.57-2.59V107.11c0-9.7,6.46-16.8,16.16-16.8s16.15,7.1,16.15,16.8v41.35a2.59,2.59,0,0,0,2.58,2.59h15.52a2.59,2.59,0,0,0,2.58-2.59V107.11c0-21-15.83-37.48-36.83-37.48a31.19,31.19,0,0,0-16.16,4.52V42.48a2.57,2.57,0,0,0-2.57-2.57ZM575.81,69.63a2.58,2.58,0,0,0-2.58,2.59v76.23a2.6,2.6,0,0,0,2.58,2.6h15.52a2.59,2.59,0,0,0,2.58-2.59V107.11c0-9.7,6.46-16.8,16.15-16.8s16.16,7.1,16.16,16.8v41.35a2.58,2.58,0,0,0,2.57,2.59h15.53a2.58,2.58,0,0,0,2.57-2.59V107.11c0-21-15.82-37.48-36.83-37.48a31.18,31.18,0,0,0-16.15,4.52V72.21a2.58,2.58,0,0,0-2.58-2.58ZM46.86,151.05a2.58,2.58,0,0,0,2.57-2.59v-106a2.57,2.57,0,0,0-2.57-2.58H31.33a2.57,2.57,0,0,0-2.57,2.58v106a2.58,2.58,0,0,0,2.57,2.59ZM-1,27" />
</svg>
