<!--LARGE LOGO 100x100-->
<svg xmlns="http://www.w3.org/2000/svg" width="100" height="100" viewBox="0 0 100 100">
    <title>Logo</title>
    <svg xmlns="http://www.w3.org/2000/svg" viewBox="0 0 60 60">
        <circle cx="14.27" cy="40.53" r="11.85" fill="none" stroke="f5f5f5" stroke-miterlimit="10" stroke-width="3"/>
        <path d="M9.67,15.55a5.31,5.31,0,1,1-.82,2.84,6.12,6.12,0,0,1,.06-1.09h0c0-4.65,3.19-8.62,11.2-8.42H36.3A10.88,10.88,0,0,1,47.18,19.75h0A10.88,10.88,0,0,1,36.3,30.63H46.72A10.88,10.88,0,0,1,57.6,41.51h0A10.88,10.88,0,0,1,46.72,52.38H39.3L22.56,8.88h0" fill="none" stroke="f5f5f5" stroke-miterlimit="10" stroke-width="3"/>
    </svg>

</svg>
